<svg id="Capa_2" data-name="Capa 2" xmlns="http://www.w3.org/2000/svg" viewBox="0 0 49.08 76.48"><title>back</title><path d="M53.62,78a5.55,5.55,0,0,0,4.13-1.88c1.64-1.65,3.25-3.34,5-4.93a5.84,5.84,0,0,0,0-8.29C57.43,57.71,52.21,52.43,47,47.18c-2.23-2.22-4.44-4.47-6.69-6.67-.51-.5-.51-.81,0-1.31,4.23-4.2,8.42-8.42,12.63-12.63,3.21-3.22,6.4-6.47,9.65-9.64a5.94,5.94,0,0,0,1.77-5.8A4.79,4.79,0,0,0,63.12,9c-1.89-2-3.82-4-5.84-5.89a5.29,5.29,0,0,0-7.53,0c-4,3.87-7.91,7.83-11.85,11.76C31,21.8,24.07,28.75,17.1,35.65a5.91,5.91,0,0,0,0,8.3q14.4,14.32,28.73,28.68c1.14,1.14,2.27,2.29,3.4,3.43A5.8,5.8,0,0,0,53.62,78Z" transform="translate(-15.38 -1.52)" fill="#919191"/></svg>