<svg id="Capa_1" data-name="Capa 1" xmlns="http://www.w3.org/2000/svg" viewBox="0 0 49.08 76.48"><title>next</title><path d="M26.23,78a5.54,5.54,0,0,1-4.13-1.88c-1.65-1.65-3.25-3.34-5-4.93a5.84,5.84,0,0,1,0-8.29c5.3-5.19,10.52-10.47,15.77-15.72,2.23-2.22,4.44-4.47,6.69-6.67.5-.5.51-.81,0-1.31C35.36,35,31.17,30.78,27,26.57c-3.21-3.22-6.4-6.47-9.66-9.64a6,6,0,0,1-1.76-5.8A4.79,4.79,0,0,1,16.73,9c1.89-2,3.82-4,5.84-5.89a5.29,5.29,0,0,1,7.53,0C34.1,7,38,10.94,42,14.87c6.93,6.93,13.83,13.88,20.8,20.78a5.91,5.91,0,0,1,0,8.3Q48.37,58.28,34,72.63c-1.14,1.14-2.27,2.29-3.4,3.43A5.8,5.8,0,0,1,26.23,78Z" transform="translate(-15.38 -1.52)" fill="#919191"/></svg>