<?xml version="1.0" encoding="utf-8"?>
<!-- Generator: Adobe Illustrator 22.0.0, SVG Export Plug-In . SVG Version: 6.00 Build 0)  -->
<svg version="1.1" xmlns="http://www.w3.org/2000/svg" xmlns:xlink="http://www.w3.org/1999/xlink" x="0px" y="0px"
	 viewBox="0 0 150 150" style="enable-background:new 0 0 150 150;" xml:space="preserve">
<style type="text/css">
	.st0{fill:#FFFFFF;}
</style>
<g id="Capa_3">
	<g id="asesoramiento">
		<path class="st0" d="M122.6,123.3c1.3,0,2.4,0,3.6,0c1.9,0,3,1.3,3,3.3c0,6.7,0,13.3,0,20c0,2.2-1.2,3.4-3.4,3.4
			c-9.6,0-19.1,0-28.7,0c-3.7,0-7.4,0-11.1,0c-2.3,0-3.4-1.2-3.4-3.8c0-6.4,0-12.8,0-19.2c0-2.5,1.1-3.7,3.4-3.8
			c3.2,0,3.2,0,3.2-3.6c0-4.8-0.2-9.7,0.1-14.5c0.7-9.5,4.8-16.7,12.4-21.4c4-2.5,8.1-4.9,12-7.5c3.4-2.3,6.8-2.9,10.7-0.9
			c0.5-1.8,0.9-3.4,1.4-5.1c1.2-4.8,2.4-9.6,3.7-14.3c1.5-5.7,4.8-9.2,10-10.5c2.1-0.5,3.9,0.1,5.4,1.7c3.6,3.8,4.5,8.5,3.2,13.7
			c-3.1,12.4-6.3,24.8-9.5,37.1c-1,3.9-2.9,7.3-5.6,10.2c-2.9,3.2-5.8,6.4-8.7,9.6C123,119.3,122.4,121,122.6,123.3z M116.7,123.2
			c0-0.3,0.1-0.6,0.1-0.8c0.1-3.8,1.4-6.9,3.8-9.5c2.8-3,5.6-6.2,8.4-9.2c2.2-2.4,3.6-5.1,4.4-8.4c0.5-2.2,1.1-4.3,1.6-6.4
			c2.5-10,5.1-19.9,7.6-29.9c0.6-2.3,0.3-4.5-1-6.5c-0.6-0.8-1.2-1-2-0.7c-2.5,1-4.1,3-4.8,5.8c-1.9,7.4-3.8,14.8-5.7,22.2
			c-0.2,0.7-0.2,1.6,0,2.4c1,4.8-0.5,9.2-3.9,11.3c-4.2,2.7-8.5,5.4-12.7,8.1c-1.7,1.1-3.5,0.8-4.3-0.8c-0.9-1.7-0.4-3.5,1.4-4.6
			c4.2-2.7,8.4-5.3,12.6-8.1c0.7-0.4,1.3-1.5,1.4-2.3c0.4-1.9-0.2-3.5-1.7-4.7c-1.5-1.1-3-1-4.5,0c-4.1,2.6-8.1,5.3-12.2,7.7
			c-6.9,4.1-10.3,10.5-10.4,19c-0.1,4.7,0,9.3,0,14c0,0.4,0,0.9,0.1,1.4C102.3,123.2,109.4,123.2,116.7,123.2z M88.4,143.6
			c11.7,0,23.3,0,35,0c0-4.7,0-9.3,0-13.9c-11.7,0-23.3,0-35,0C88.4,134.3,88.4,138.9,88.4,143.6z"/>
		<path class="st0" d="M60.7,123.3c1.3,0,2.4,0,3.6,0c1.9,0,3,1.2,3.1,3.3c0,6.7,0,13.4,0,20.1c0,2-1.1,3.2-3,3.2
			c-1.7,0-3.4,0-5.1,0c-11.6,0-23.2,0-34.7,0c-2.9,0-3.8-1-3.8-4.1c0-6.3,0-12.5,0-18.8c0-2.6,1-3.8,3.4-3.8c0.8,0,1.6,0,2.5,0
			c0.7,0,0.9-0.3,0.8-1c-0.1-1.8-0.7-3.2-1.9-4.5c-2.9-3.2-5.7-6.4-8.7-9.6c-2.9-3.1-4.8-6.9-5.9-11.2c-3-12-6.1-24-9.2-36.1
			c-1.1-4.5-0.6-8.7,2-12.4c2.3-3.3,4.9-4.1,8.4-2.7c4.5,1.8,7.2,5.4,8.4,10.4c1.5,6.1,3.1,12.1,4.7,18.2c0.1,0.2,0.1,0.4,0.2,0.6
			c0.1,0,0.2,0.1,0.3,0.1c3.6-1.9,7-1.3,10.4,1c4.1,2.8,8.4,5.2,12.5,7.9c7.9,5.2,11.7,13,12,23c0.1,4.8,0,9.7,0,14.5
			C60.7,122.2,60.7,122.7,60.7,123.3z M54.9,123.2c0-0.4,0.1-0.6,0.1-0.8c0-5.2,0.1-10.4,0-15.6c-0.3-7.7-3.3-13.6-9.4-17.4
			c-2.4-1.5-4.8-2.9-7.2-4.4c-2.2-1.4-4.3-2.8-6.5-4.1c-1.9-1.1-4.2-0.1-5.2,2.1c-1.1,2.4-0.4,4.4,1.7,5.7c4.1,2.6,8.2,5.3,12.3,8
			c0.5,0.3,0.9,0.9,1.1,1.4c0.6,1.3,0.3,2.7-0.6,3.6c-1,1-2.2,1.1-3.5,0.3c-3.9-2.5-7.7-5.3-11.7-7.5c-4.8-2.6-6-7.4-5-12.3
			c0.1-0.6,0.1-1.3,0-1.8c-0.7-2.9-1.4-5.7-2.2-8.6c-1.2-4.7-2.4-9.5-3.6-14.2c-0.7-2.7-2.3-4.6-4.7-5.6c-0.8-0.4-1.5-0.2-2,0.6
			c-1.4,2-1.6,4.3-1,6.6c3,11.8,6,23.5,8.9,35.3c1,4,2.8,7.4,5.5,10.3c2.3,2.4,4.5,5.1,6.8,7.5c2.9,2.9,4.6,6.4,4.6,10.8
			c0,0.1,0.1,0.1,0.2,0.3C40.5,123.2,47.6,123.2,54.9,123.2z M26.5,143.6c11.7,0,23.3,0,35,0c0-4.7,0-9.2,0-13.9
			c-11.7,0-23.3,0-35,0C26.5,134.4,26.5,138.9,26.5,143.6z"/>
		<path class="st0" d="M115,33.3c0,9.8,0,19.5,0,29.3c0,2.8-1,3.9-3.5,3.9c-7.9,0-15.8,0-23.7,0c-1,0-1.6,0.3-2.1,1.4
			c-2.6,5.6-5.4,11.2-8,16.8c-0.6,1.3-1.4,2.2-2.7,2.2c-1.4,0-2.2-0.8-2.8-2.1c-2.7-5.6-5.4-11.3-8.1-16.9c-0.4-0.9-0.9-1.3-1.9-1.3
			c-7.9,0-15.9,0-23.8,0c-2.6,0-3.6-1.1-3.6-4c0-19.6,0-39.1,0-58.7c0-2.6,1-3.7,3.4-3.7c24.4,0,48.9,0,73.3,0
			c2.5,0,3.4,1.1,3.4,3.8C115,13.6,115,23.4,115,33.3z M74.9,76.8c0.3-0.5,0.5-0.8,0.7-1.2c2.1-4.3,4.2-8.6,6.2-12.9
			c0.8-1.8,2-2.6,3.8-2.6c7.4,0.1,14.9,0,22.3,0c0.5,0,0.9,0,1.4,0c0-18.1,0-35.9,0-53.7c-22.9,0-45.7,0-68.6,0
			c0,17.9,0,35.7,0,53.7c0.6,0,1,0,1.5,0c7.5,0,15,0,22.4,0c1.6,0,2.7,0.7,3.4,2.3c0.9,2.1,1.9,4.1,2.9,6.2
			C72.3,71.3,73.6,73.9,74.9,76.8z"/>
		<path class="st0" d="M75,21.3c-6.5,0-13,0-19.5,0c-1.3,0-2.4-0.3-3.1-1.7c-0.8-1.8,0-3.9,1.8-4.4c0.5-0.1,1.1-0.2,1.6-0.2
			c12.7,0,25.5,0,38.2,0c0.2,0,0.4,0,0.6,0c1.9,0.1,3.2,1.3,3.2,3.2c0,1.9-1.3,3.1-3.2,3.2C88.1,21.4,81.5,21.3,75,21.3z"/>
		<path class="st0" d="M75,51.4c-6.5,0-13.1,0-19.6,0c-1.7,0-2.6-0.7-3.1-2.1c-0.6-1.8,0.4-3.6,2.1-4.1c0.5-0.1,1.1-0.1,1.6-0.1
			c12.6,0,25.3,0,37.9,0c0.6,0,1.2,0,1.7,0.2c1.4,0.4,2.3,1.8,2.1,3.4c-0.1,1.5-1.2,2.7-2.6,2.8c-1.6,0.1-3.1,0-4.7,0
			C85.3,51.4,80.1,51.4,75,51.4z"/>
		<path class="st0" d="M74.8,36.4c-6.4,0-12.8,0-19.2,0c-0.7,0-1.4-0.1-2-0.4c-1.1-0.6-1.6-1.7-1.5-3.1c0.1-1.3,0.8-2.2,1.9-2.6
			c0.6-0.2,1.2-0.2,1.8-0.2c12.8,0,25.5,0,38.3,0c0.5,0,1.1,0,1.6,0.2c1.3,0.4,2.1,1.7,2,3.2c-0.1,1.5-1.1,2.7-2.4,2.9
			c-0.5,0.1-1,0.1-1.5,0.1C87.6,36.4,81.2,36.4,74.8,36.4z"/>
	</g>
</g>
<g id="Capa_2">
</g>
</svg>
