<?xml version="1.0" encoding="utf-8"?>
<!-- Generator: Adobe Illustrator 22.0.0, SVG Export Plug-In . SVG Version: 6.00 Build 0)  -->
<svg version="1.1" id="Capa_1" xmlns="http://www.w3.org/2000/svg" xmlns:xlink="http://www.w3.org/1999/xlink" x="0px" y="0px"
	 viewBox="0 0 150 150" style="enable-background:new 0 0 150 150;" xml:space="preserve">
<style type="text/css">
	.st0{fill:#FFFFFF;}
</style>
<g>
	<path class="st0" d="M92.1,61.5c0-12.2,0-24,0-36c-12,0-23.8,0-35.8,0c0,7.5,0,15.1,0,22.6c0.2,0.2,0.4,0.3,0.5,0.5
		c2.4-2.6,4.8-5.2,7.3-7.8c1.7-1.8,3.4-3.7,5.3-5.3c2.4-2.1,4.9-4.1,7.5-5.8c3-2,7-1.5,9.7,1.1c2.7,2.5,3.4,6.6,1.5,9.8
		c-0.7,1.1-0.9,2-0.3,3.3c1,2.2,0.4,4.4-1.3,6.1c-3.4,3.5-6.9,6.9-10.3,10.4c-1.6,1.6-3.4,2-5.7,1.7c-0.9-0.1-2.1,0.1-2.7,0.7
		c-2.4,2.2-4.5,4.8-7,6.8c-3.4,2.7-7.6,3.5-11.8,3.5c-2.9,0-5.1-3.4-4.4-6.1c0.5-2.1,0.8-3.9,0-6c-0.4-1-0.1-2.3-0.1-3.4
		c0-12.2,0-24.4,0-36.6c0-4.9,2.3-7.2,7.1-7.2c15,0,30,0,45,0c5.2,0,7.4,2.1,7.4,7.3c0,14.9,0,29.9,0,44.8c0,5.3-2.1,7.3-7.3,7.3
		c-4,0-8.1,0-12.1,0c-3.7,0-6.3-2.4-6.3-5.8c0-3.4,2.5-5.7,6.3-5.8C86.9,61.5,89.4,61.5,92.1,61.5z M83.1,67c0,0.3,0.1,0.7,0.1,1
		c0.7,0.1,1.4,0.3,2.1,0.3c3.7,0,7.3-0.1,11,0.1c2.2,0.1,2.7-0.8,2.7-2.8c-0.1-14.7-0.1-29.4,0-44.1c0-2.1-0.7-2.7-2.8-2.7
		c-14.7,0.1-29.4,0.1-44.1,0c-2,0-2.8,0.5-2.7,2.7c0.1,12,0,24.1,0.1,36.1c0,0.6,0.1,1.3,0.1,1.9c0.3,0.1,0.5,0.1,0.8,0.2
		c0.3-1,0.8-2.1,0.8-3.1c0.1-11.2,0-22.4,0-33.6c0-1.2-0.2-2.4,1.7-2.4c14.1,0.1,28.2,0,42.3,0c1.3,0,1.9,0.4,1.9,1.8
		c0,14.1,0,28.2,0,42.3c0,1.4-0.5,1.9-1.9,1.9c-3.3-0.1-6.6,0-9.8,0C84.6,66.5,83.8,66.8,83.1,67z M58,64.7
		C65.5,57.3,72.9,50,80,42.8c-1.8-1.8-3.6-3.7-5.2-5.4c-7.3,7.3-14.7,14.6-22,21.9C54.5,61.2,56.3,63,58,64.7z M81.3,40.8
		c1.6-1.4,3.4-2.6,2.7-4.9c-0.3-1-1.5-2-2.4-2.3c-2.3-0.6-3.5,1.2-4.7,2.9C78.3,37.9,79.7,39.2,81.3,40.8z M82.1,44.5
		c-1.9,2.1-3.7,4.1-5.5,6c-1.5,1.5-3.1,3-4.5,4.6c-0.4,0.4-0.5,1.2-0.7,1.8c0.6-0.2,1.4-0.3,1.9-0.7c3-2.9,5.9-5.9,8.9-8.9
		C83.7,46,83.3,45.1,82.1,44.5z M51.1,60.8c-0.7,2.6-1.3,4.8-2,7.7c2.8-0.8,5.1-1.4,7.5-2C54.7,64.5,53.1,62.8,51.1,60.8z"/>
	<path class="st0" d="M17,114.7c0-5,0-9.9,0-14.9c0-4.3,2.2-6.8,6.4-7.5c6.8-1.1,13.7-2.2,20.5-3.4c2.9-0.5,5.6-0.1,8.2,1.1
		c8.4,4,16.8,7.9,25.2,11.8c0.7,0.3,1.9,0.1,2.7-0.3c6.7-3.2,13.4-6.5,20.1-9.9c4.1-2,8-2.1,12,0c0.6,0.3,1.6,0.2,2.3,0.1
		c1.4-0.2,2.8-0.8,4.2-1c4.8-0.8,9,0.4,11.9,4.5c2.9,4.3,3.5,8.8,0.5,13.2c-1.4,2.1-3.1,4.2-5.1,5.8c-14.6,11.1-29.3,22.1-44.1,33
		c-3.9,2.9-8.3,3.3-12.8,1.5c-9.8-3.8-19.6-7.7-29.4-11.4c-1.9-0.7-4-0.9-6-1c-3.3-0.2-6.5,0-9.8-0.1c-4.5,0-6.9-2.4-6.9-7
		C17,124.6,17,119.6,17,114.7C17,114.7,17,114.7,17,114.7z M50.1,112.7c0.7,0.3,1.3,0.5,1.9,0.7c5,2.4,10,4.8,15.1,7.1
		c6.1,2.8,12.6-1.5,12-8c-0.3-3.2-2.1-5.5-5-6.9c-7.8-3.6-15.6-7.4-23.4-10.8c-1.8-0.8-4-1.3-5.9-1c-6.9,0.9-13.8,2.2-20.7,3.3
		c-1.3,0.2-2,0.8-2,2.3c0,10.1,0,20.1,0,30.2c0,1.5,0.6,2,2.1,2c3.1,0,6.3,0.1,9.4,0c3-0.1,5.9,0.4,8.7,1.5
		c9.4,3.7,18.9,7.3,28.3,11.1c3.4,1.3,6.4,1,9.3-1.1c4.8-3.5,9.7-6.9,14.4-10.5c9.8-7.4,19.5-14.8,29.2-22.4
		c1.7-1.4,3.2-3.3,4.2-5.3c2-4.2-1.2-9.5-5.8-9.3c-3,0.2-6.2,1-8.9,2.4c-10.1,5.6-19.9,11.5-29.8,17.3c-0.7,0.4-1.3,1-1.7,1.7
		c-3.1,6.6-9.1,8.9-15.7,5.8c-4.8-2.2-9.5-4.6-14.2-6.8C49.7,115.5,49.5,114.5,50.1,112.7z M82.2,112.5c9.2-5.3,18.3-10.7,27.9-16.2
		c-2.7-1.4-5-1.5-7.3-0.4c-7.2,3.5-14.4,7-21.5,10.6c-0.4,0.2-0.7,0.5-0.9,0.7C81,109,81.6,110.6,82.2,112.5z"/>
	<path class="st0" d="M42.5,75.1c1.8,0,3.2-0.1,4.5,0c3.7,0.2,6.2,2.7,6.1,6c-0.1,3.2-2.6,5.6-6.2,5.7c-3.3,0.1-6.7,0.1-10,0
		c-3.8-0.1-6.1-2.4-6.1-6.2c-0.1-3.3-0.1-6.7,0-10c0.1-3.6,2.6-6,5.8-6.1c3.3,0,5.8,2.6,5.9,6.2C42.5,72.1,42.5,73.4,42.5,75.1z
		 M41.9,81.9c1.5,0,3.1,0.1,4.6,0c0.5,0,1.1-0.5,1.6-0.8c-0.5-0.3-1-0.9-1.5-0.9c-2.2-0.1-4.4-0.2-6.6,0c-1.9,0.1-2.4-0.7-2.3-2.4
		c0.1-2.1,0.1-4.3,0-6.4c0-0.6-0.6-1.1-1-1.7c-0.3,0.5-0.8,1.1-0.8,1.6c-0.1,2.9,0,5.8-0.1,8.7c0,1.5,0.7,2,2.1,1.9
		C39.1,81.8,40.5,81.9,41.9,81.9z"/>
	<path class="st0" d="M42.5,11.8c0,1.9,0.1,3.3,0,4.8c-0.2,3.3-2.8,5.8-5.9,5.8c-3.1,0-5.6-2.4-5.8-5.6c-0.1-3.6-0.2-7.3,0-11
		c0.1-3.4,2.3-5.5,5.7-5.7c3.6-0.2,7.3-0.2,11,0c3.5,0.1,5.7,2.6,5.7,5.9c0,3.2-2.5,5.6-5.8,5.8C45.8,11.9,44.3,11.8,42.5,11.8z
		 M35.7,11.2c0,1.4-0.1,2.7,0,4.1c0.1,0.7,0.6,1.4,0.9,2c0.3-0.6,0.9-1.3,0.9-1.9c0.1-2.1,0.1-4.2,0-6.4c-0.1-1.6,0.5-2.2,2.1-2.1
		c2.3,0.1,4.7,0.1,7.1,0c0.5,0,0.9-0.5,1.3-0.8c-0.4-0.3-0.8-0.9-1.3-0.9C45.1,5,43.4,5,41.8,5C35.7,5,35.7,5,35.7,11.2z"/>
	<path class="st0" d="M105.8,11.8c-1.9,0-3.4,0.1-4.8,0c-3.4-0.2-5.8-2.6-5.9-5.8c-0.1-3.2,2.2-5.8,5.7-5.9c3.7-0.2,7.5-0.2,11.2,0
		c3.3,0.1,5.5,2.5,5.6,5.8c0.1,3.5,0.1,7,0,10.5c-0.1,3.3-2.6,5.9-5.8,5.9c-3.1,0.1-5.6-2.3-5.9-5.7
		C105.7,15.2,105.8,13.6,105.8,11.8z M112.6,11.4c0-1.5,0-3,0-4.6c0-1.2-0.5-1.8-1.7-1.8c-3,0-6.1,0-9.1,0.1c-0.5,0-1,0.6-1.5,0.9
		c0.5,0.3,1,0.8,1.6,0.8c2.1,0.1,4.3,0.2,6.4,0c2-0.1,2.8,0.4,2.6,2.5c-0.2,2.2-0.1,4.4,0,6.6c0,0.5,0.6,0.9,0.9,1.3
		c0.3-0.4,0.8-0.9,0.9-1.3C112.6,14.4,112.6,12.9,112.6,11.4z"/>
	<path class="st0" d="M105.2,75.1c0-1.7,0-3,0-4.4c0.2-3.6,2.5-6.1,5.8-6.1c3.2-0.1,5.8,2.4,5.9,6c0.1,3.4,0.1,6.9,0,10.3
		c-0.1,3.7-2.5,5.9-6.1,6c-3.3,0.1-6.7,0.1-10,0c-3.6-0.1-6.1-2.5-6.1-5.8c-0.1-3.3,2.3-5.7,5.9-6C102,75,103.4,75.1,105.2,75.1z
		 M105.8,81.9c1.5,0,3.1,0.2,4.6-0.1c0.6-0.1,1.6-1,1.6-1.5c0.2-3,0.1-6.1,0-9.1c0-0.5-0.6-1-0.9-1.5c-0.3,0.5-0.8,1.1-0.8,1.6
		c-0.1,2.3-0.1,4.6,0,6.9c0.1,1.5-0.5,2-2,2c-2.3-0.1-4.6-0.1-6.9,0c-0.6,0-1.1,0.5-1.6,0.8c0.6,0.3,1.1,0.9,1.7,0.9
		C102.9,82,104.3,81.9,105.8,81.9z"/>
	<path class="st0" d="M54.4,59.2c6.7-6.7,13.6-13.6,20.6-20.5c1.3,1.3,2.7,2.8,4,4.3c-6.9,6.9-13.7,13.7-20.9,20.8
		C56.8,62.2,55.6,60.7,54.4,59.2z"/>
</g>
</svg>
