<?xml version="1.0" encoding="utf-8"?>
<!-- Generator: Adobe Illustrator 22.0.0, SVG Export Plug-In . SVG Version: 6.00 Build 0)  -->
<svg version="1.1" id="Capa_2" xmlns="http://www.w3.org/2000/svg" xmlns:xlink="http://www.w3.org/1999/xlink" x="0px" y="0px"
	 viewBox="0 0 150 150" style="enable-background:new 0 0 150 150;" xml:space="preserve">
<style type="text/css">
	.st0{fill:#FFFFFF;}
</style>
<g id="envio">
	<path class="st0" d="M0.5,79.6c0-13.4,0-26.9,0-40.3c0-2.8,0.9-3.6,3.7-3.6c3.2,0,6.3,0,9.5,0c1.2,0,1.6,0.4,1.7,1.6
		c0.2,2.8,0.4,5.6,0.9,8.3c0.6,4.1,2.1,7.9,3.8,11.7c2.2,4.9,4.9,9.5,8.1,13.7c5.1,6.9,10.9,13.1,18,18c2.1,1.5,3.3,1.5,5.4,0
		c8-5.6,14.6-12.6,19.9-20.8c2.4-3.7,4.8-7.5,6.5-11.6c2.6-6,4.4-12.2,4.3-18.8c0-2.1,0-2.1,2.1-2.1c3.1,0,6.2,0,9.3,0
		c2.6,0,3.3,0.7,3.3,3.3c0,22.9,0,45.9,0,68.8c0,2.3,0,2.3-2.3,2.3c-14.5,0-29,0-43.5,0c-0.4,0-0.7,0-1.1,0
		c-1.7,0.1-2.4,0.9-2.4,2.5c0,1.4,0.9,2.4,2.4,2.5c0.5,0,1,0,1.5,0c14.4,0,28.8,0,43.3,0c2.1,0,2.1,0,2.1,2.1c0,1.6,0,3.3,0,4.9
		c0,1.1-0.5,1.6-1.6,1.6c-16,0-32.1,0-48.1,0c-1.3,0-1.9-0.8-2.2-1.7c-1.5-3.9-4.1-6.9-7.6-9.1c-8.8-5.5-20.7-2.7-26,6.8
		c-0.5,0.8-0.7,1.9-1.2,2.6c-0.4,0.6-1.1,1.2-1.8,1.3c-1.8,0.2-3.5,0.1-5.3,0c-1.9-0.1-2.7-1.1-2.7-3.1C0.5,106.8,0.5,93.2,0.5,79.6
		z"/>
	<path class="st0" d="M77.3,37.4c-0.1,5-1.1,9.5-2.7,14c-2.9,8.5-7.7,15.8-13.8,22.3c-3.4,3.7-7.3,7-11,10.4c-0.8,0.7-1.4,0.6-2.2,0
		c-4.7-3.7-9-7.9-12.8-12.5c-4.2-5-7.8-10.5-10.5-16.5c-2.3-5.1-3.8-10.4-4-16c-0.4-10.5,3.4-19.1,12.1-25.4
		c6.8-5,14.5-6.2,22.5-4.6c8.1,1.7,14.4,6.4,18.6,13.8C76.1,27.6,77.3,32.4,77.3,37.4z M48.8,53.1C57.8,53,65,45.8,65,36.9
		c-0.1-9-7.6-16-16.2-16c-8.6,0-16.1,7.5-16.1,16.2C32.7,46,40.5,53.2,48.8,53.1z"/>
	<path class="st0" d="M102,87c0-11.4,0-22.9,0-34.3c0-1.8,0.2-2.1,2.1-2.1c5.6,0,11.2,0,16.7,0c3.2,0,6,1.8,6.8,5.3
		c0.9,4.1,2.3,8.1,3.5,12.1c0.7,2.4,1.3,4.8,2,7.2c0.2,0.9,0,1.4-1.1,1.4c-5.4,0-10.8,0-16.2,0c-1.3,0-1.3-0.7-1.3-1.6
		c0-5.1,0-10.1,0-15.2c0-0.7,0-1.3,0-2c-0.1-1.2-1.4-2.4-2.5-2.4c-1.1,0-2.4,1.2-2.4,2.4c0,6.4-0.1,12.8,0,19.3
		c0,2.6,2.3,4.4,5.1,4.5c6,0,12,0,18,0c1.3,0,2.6,0.1,3.9,0c6.8-0.3,12.7,5.8,12.5,12.5c-0.1,1.5,0,3,0,4.5c0,0.9-0.3,1.5-1.4,1.5
		c-3.8,0-7.5,0-11.3,0c-1.4,0-2.5-0.6-3.1-2c-0.5-1.3-0.1-2.7,1-3.3c0.7-0.4,1.6-0.6,2.4-0.7c0.9-0.1,1.8,0,2.6-0.1
		c1.3-0.2,2.5-1.4,2.5-2.5c0-0.9-1.2-2.4-2.3-2.6c-3.6-0.4-7.1,0-9.7,3c-3.4,4-1.8,10.6,3.1,12.4c1.4,0.5,2.9,0.8,4.4,0.8
		c3.3,0.1,6.7,0.1,10,0c1.2,0,1.7,0.4,1.7,1.6c0,4.6,0,9.3,0,14c0,1.2-0.4,2.3-1.6,2.5c-1.3,0.2-2.7,0-4-0.2c-0.3,0-0.4-1-0.6-1.5
		c-4.1-8.8-12.1-13.2-21.8-11c-5.8,1.3-10.1,5.1-12.6,10.7c-0.4,0.8-0.9,2.1-1.5,2.2c-1.4,0.3-2.9,0.1-4.4,0c-0.3,0-0.6-0.8-0.7-1.2
		c-0.1-0.8,0-1.6,0-2.4C102,108.9,102,97.9,102,87C102,87,102,87,102,87z"/>
	<path class="st0" d="M139.3,128.6c-0.1,7.1-5.6,13.5-13.6,13.4c-7.9,0-13.7-6.1-13.6-13.6c0-7.6,5.9-13.3,13.4-13.5
		C133.1,114.9,139.3,121.2,139.3,128.6z M120.7,128.5c0,2.6,2.4,5.1,4.9,5.1c2,0,4.9-1.8,5-5c0-2.9-2.3-5-4.8-5
		C123,123.6,120.7,125.8,120.7,128.5z"/>
	<path class="st0" d="M14.2,128.4C14,121,20.9,114.8,27.9,115c6.9,0.2,13.5,6,13.3,13.9c-0.1,7.2-6.2,13.3-13.6,13.2
		C20,142.1,13.9,135.6,14.2,128.4z M32.8,128.6c0-2.6-2.3-4.9-5-5c-2.6-0.1-5,2.2-5,4.9c-0.1,2.6,2.4,5.1,5,5.1
		C30.2,133.6,32.8,131.1,32.8,128.6z"/>
	<path class="st0" d="M59.8,37.1c0.1,6.6-5.2,11.1-10.9,11.1c-5.9,0-11.1-4.6-11.1-11.2c0-6.7,5.4-11.2,11.1-11.2
		C54.6,25.8,60,30.3,59.8,37.1z"/>
</g>
</svg>
