<svg id="Capa_2" data-name="Capa 2" xmlns="http://www.w3.org/2000/svg" viewBox="0 0 150 150"><title>presupuesto</title><path d="M77.22,13.79c-.92-1.49-1.73-2.66-2.4-3.9-1.63-3-.45-5.73,2.89-6.61,3.68-1,7.3-.25,10.73,1,2.29.82,3.84.85,6-.69,5-3.49,10.87-3.89,16.81-3.42a20.56,20.56,0,0,1,8.31,2.22c3.83,2.08,4.62,5,2.31,8.64l-7,11a7.65,7.65,0,0,1,3.59,7.14,7.73,7.73,0,0,1-4.63,6.49L121,43.73c5.1,5.77,10.15,11.56,14.17,18.13,3,4.93,5.31,10.14,5.91,16a27.55,27.55,0,0,1-2.74,15.35l-.59,1.23c2.06.26,4.07.49,6.06.79a6.09,6.09,0,0,1,1.68.58c5.3,2.42,6.16,7.69,1.58,11.23a91.09,91.09,0,0,1-9.6,6c-5.43,3.2-10.8,6.51-16.38,9.43a74.18,74.18,0,0,1-10.79,4.3c-7.08,2.37-14.21,4.58-21.36,6.76a18.34,18.34,0,0,1-4.57.66q-21.72.93-43.44,1.76c-.85,0-1.14.4-1.52,1.05-3.64,6.2-8.77,10.73-15.87,12.78-3.32,1-5.46-.24-6.78-3.39Q8.7,127.15.69,108c-1.35-3.24-.8-5.5,2.32-7.24A26.69,26.69,0,0,1,22.68,98a15.25,15.25,0,0,1,2.44,1.09l6-4.71-.9-.14c-3.45-.42-5.59-2.72-5.6-6.11q0-17.94,0-35.87,0-16,0-31.92c0-4.28,2.37-6.58,6.78-6.58H77.22Zm.89,72.66,0,0a44.35,44.35,0,0,1,6.41,2.18,7.1,7.1,0,0,0,3.57,1c2.45-.06,2.5-.07,2.5-2.5V20.92c0-2.37,0-2.42-2.41-2.42H31.9c-2.42,0-2.48.07-2.48,2.51V88.06c0,1,.5,1.53,1.55,1.52,1.75,0,3.51.11,5.25,0a10.34,10.34,0,0,0,3.52-.86,34.35,34.35,0,0,1,10.52-3.23c1.69-.19,3.4-.35,5.19-.53-2.86-3.94-2.8-7.35,0-9.81a6.41,6.41,0,0,1,8.81.21,8.27,8.27,0,0,1,2,3.81c.53,2.37-.61,4.34-2.61,6.12ZM62.26,130.29h0c5.79-.23,11.58-.39,17.37-.7a44.38,44.38,0,0,0,8.73-1c5.63-1.48,11.17-3.31,16.7-5.13,6.33-2.09,12.62-4.21,18.34-7.79,6.42-4,13.11-7.65,19.61-11.57.9-.55,1.39-1.75,2.07-2.65a12.57,12.57,0,0,0-2.87-1.84c-2.86-.87-5.63-.15-8.31.92-8,3.19-16,6.29-24,9.6a22.77,22.77,0,0,1-10.73,2.11c-5.06-.4-10.21-.41-15.17-1.37-6.69-1.29-13.23-3.33-19.83-5-2.94-.77-5.89-1.5-8.82-2.3a2.24,2.24,0,0,1-1.84-2.63,2.32,2.32,0,0,1,2.52-2c.35,0,.7,0,1.05,0,5.89.12,11.79.33,17.68.3a15.57,15.57,0,0,0,5.47-1.12,4,4,0,0,0,2.65-4c-.26-1.34-1.76-2.45-3.94-2.64-6.72-.57-13.43-1.18-20.16-1.57a32.51,32.51,0,0,0-21.72,6.06c-3.21,2.33-6.29,4.82-9.47,7.18-.73.55-.5,1-.25,1.62,3.56,8.48,7.13,17,10.64,25.44.37.91.84,1.08,1.77,1C47.28,130.87,54.78,130.59,62.26,130.29Zm15.66-25.82c3.15.79,6.27,2,9.48,2.29,5,.52,10.06.51,15.09.67a6.14,6.14,0,0,0,2.31-.46q11.92-4.71,23.82-9.5a5,5,0,0,0,1.89-1.34c5.65-6.6,7.12-14.1,4.78-22.32a45.2,45.2,0,0,0-9-16.2c-5.72-7-11.69-13.73-17.59-20.54a2.51,2.51,0,0,0-1.66-.64c-3.39-.06-6.79,0-10.19,0-.43,0-.85.07-1.36.11v1.87q0,24.89,0,49.75a5.92,5.92,0,0,1-4.88,6.14,19.08,19.08,0,0,1-2.49.18C86.58,100.29,85.76,101.07,77.92,104.47ZM95.64,20.74c4.57,0,9.11,0,13.64,0,.44,0,1-.54,1.28-1,2.39-3.65,4.68-7.36,7.1-11,.79-1.18.59-1.84-.65-2.35a13.09,13.09,0,0,0-1.8-.69,28.29,28.29,0,0,0-12.45-.48c-3.27.6-6.19,1.73-8,4.73-.71,1.14-2,1.15-3.21.63C89.64,9.8,87.76,9,85.82,8.4a13.49,13.49,0,0,0-6.61-.55c1.07,1.66,2,3.18,3,4.7.15.25.26.59.49.71a3,3,0,0,0,1.32.43c1.84.05,3.69,0,5.54,0a5.84,5.84,0,0,1,5.54,4A21.16,21.16,0,0,1,95.64,20.74ZM95.5,31.59c5,0,9.89,0,14.77,0,2.08,0,3.41-1.3,3.37-3.12s-1.39-2.89-3.43-2.91c-3.3,0-6.59,0-9.89,0H95.5Z" transform="translate(0 0)" fill="#fff"/><path d="M60.11,21.4H80.64c4.71,0,6.89,2.12,6.89,6.69,0,1.61,0,3.22,0,4.82a5.46,5.46,0,0,1-5.08,5.54,16.83,16.83,0,0,1-2.24.13q-20.24,0-40.47,0A11.57,11.57,0,0,1,36.06,38a4.84,4.84,0,0,1-3.54-4.61c-.07-2.29-.11-4.59,0-6.87.16-3.11,2.66-5.14,6.29-5.15C45.92,21.37,53,21.4,60.11,21.4ZM60,33.79H80.51c2.07,0,2.12-.07,2.13-2V28.84c0-2.68,0-2.68-2.69-2.68H40c-.3,0-.6,0-.9,0-1.15-.05-1.77.35-1.67,1.61s0,2.44,0,3.66c0,2.35,0,2.36,2.37,2.36Z" transform="translate(0 0)" fill="#fff"/><path d="M78.11,86.45c-2.76-.72-4.92-2.11-5.66-5a5.17,5.17,0,0,1-.2-1.29c0-5.07,0-10.14,0-15.2a6.35,6.35,0,0,1,5.45-6.09A6.49,6.49,0,0,1,85,63.14,9.89,9.89,0,0,1,85.39,66c0,4.24,0,8.48,0,12.72,0,5-2.24,7.31-7.35,7.69Z" transform="translate(0 0)" fill="#fff"/><path d="M34.33,79.85A6.55,6.55,0,1,1,41,86.35,6.48,6.48,0,0,1,34.33,79.85Z" transform="translate(0 0)" fill="#fff"/><path d="M78.86,43a6.38,6.38,0,1,1-6.62,6.32A6.48,6.48,0,0,1,78.86,43Z" transform="translate(0 0)" fill="#fff"/><path d="M53.31,64.58A6.53,6.53,0,1,1,59.82,71,6.41,6.41,0,0,1,53.31,64.58Z" transform="translate(0 0)" fill="#fff"/><path d="M40.91,58.25a6.4,6.4,0,1,1-6.58,6.36A6.44,6.44,0,0,1,40.91,58.25Z" transform="translate(0 0)" fill="#fff"/><path d="M40.92,43a6.38,6.38,0,1,1-6.58,6.23A6.4,6.4,0,0,1,40.92,43Z" transform="translate(0 0)" fill="#fff"/><path d="M53.31,49.34a6.53,6.53,0,1,1,6.53,6.42A6.38,6.38,0,0,1,53.31,49.34Z" transform="translate(0 0)" fill="#fff"/><path d="M117.4,89c.11,1,.26,1.82.29,2.7a2.36,2.36,0,0,1-2.18,2.52,2.22,2.22,0,0,1-2.61-1.88c0-2.38-1.4-2.72-3.41-3.13-4-.82-7-3-8-7.17a2.4,2.4,0,0,1,1.65-3,2.36,2.36,0,0,1,3.08,1.78,4.81,4.81,0,0,0,3.8,3.54,9.41,9.41,0,0,0,9-1.89,3.89,3.89,0,0,0,1.42-4.07A3.68,3.68,0,0,0,117,75.68c-2.67-.32-5.37-.42-8.05-.64a27,27,0,0,1-3.11-.4c-7-1.37-8-9.22-5.31-13a12.46,12.46,0,0,1,5.75-4.51c.89-.35,1.12-.8.9-1.65a6.15,6.15,0,0,1-.21-1.59,2.37,2.37,0,0,1,2.23-2.47,2.45,2.45,0,0,1,2.64,1.91c.19.8.29,1.63.43,2.43a42.23,42.23,0,0,1,4.5,1.09c3.3,1.15,5.64,3.28,6.44,6.74a2.46,2.46,0,0,1-1.71,3,2.37,2.37,0,0,1-3-1.5c-.78-3.18-3.22-4-6.06-4.19A9,9,0,0,0,105.82,63a3.9,3.9,0,0,0-1.58,4,3.73,3.73,0,0,0,3.42,2.85c2.42.31,4.87.41,7.31.61,1,.08,2.08.17,3.12.31,7.83,1,9,9.58,5.73,13.66C122.42,86.21,121.18,87.18,117.4,89Z" transform="translate(0 0)" fill="#fff"/></svg>