<?xml version="1.0" encoding="utf-8"?>
<!-- Generator: Adobe Illustrator 22.0.0, SVG Export Plug-In . SVG Version: 6.00 Build 0)  -->
<svg version="1.1" xmlns="http://www.w3.org/2000/svg" xmlns:xlink="http://www.w3.org/1999/xlink" x="0px" y="0px"
	 viewBox="0 0 50 50" style="enable-background:new 0 0 50 50;" xml:space="preserve">
<style type="text/css">
	.st0{fill:#F9F9F9;}
</style>
<g id="Capa_3">
</g>
<g id="Capa_2">
</g>
<g id="Capa_1">
	<g transform="translate(0.000000,1164.000000) scale(0.100000,-0.100000)">
		<path class="st0" d="M237.5,11620.9c-29.3-2.8-55.3-14.2-76.1-33.3c-42.5-38.8-53.9-100.9-28.2-152.3c1.1-2.2,17-29.1,35.4-59.8
			c18.4-30.7,33.3-56,33.3-56.1s-28.9-0.3-64.2-0.2c-35.3,0.1-71,0-79.3-0.2l-15.1-0.3l-1.1-4.3c-0.6-2.3-2.1-8-3.4-12.6
			c-2.3-8.3-10.5-38.7-14.5-53.8c-1.2-4.3-3.1-11.2-4.2-15.5c-1.2-4.3-3-11.1-4.1-15.3c-1.1-4.1-4.2-15.5-6.9-25.3
			c-10.7-39.5-10-36.6-9.2-38.3c0.5-1.2,1-1.6,2.2-1.8c0.8-0.2,112.5-0.3,248.3-0.3c189.6,0,247,0.1,247.9,0.5c0.7,0.3,1.3,1,1.6,2
			c0.5,1.5,0,3.5-18,69c-7.3,26.6-17.1,62.5-22,80.4l-4.3,15.7h-80.7c-44.4,0-80.7,0-80.7,0.1c0,0.1,15,25.1,33.2,55.7
			c18.3,30.6,34.1,57.2,35.1,59.2c7,12.9,12.1,30.6,13.8,47.1c0.6,6.6,0.3,23.7-0.7,29.6c-4.4,28.5-15.9,51.8-35.3,71.7
			c-20.4,20.9-46.2,33.8-75.7,37.8C258.9,11621,243,11621.4,237.5,11620.9z M256.3,11540.8c6.6-1,14.3-4.1,20.3-8
			c3.4-2.3,9.5-8,12.1-11.6c5.1-6.8,8.1-14.3,9.5-23.3c2.3-15.1-3-31-14.3-42.3c-9.5-9.6-22.2-14.9-35.6-14.9
			c-19.2,0-36.6,10.8-45.2,28c-7.4,14.8-6.9,33,1.3,47.2C215,11534.4,235.2,11544.1,256.3,11540.8z"/>
	</g>
</g>
<g id="Capa_4">
</g>
</svg>
