<?xml version="1.0" encoding="utf-8"?>
<!-- Generator: Adobe Illustrator 22.0.0, SVG Export Plug-In . SVG Version: 6.00 Build 0)  -->
<svg version="1.1" xmlns="http://www.w3.org/2000/svg" xmlns:xlink="http://www.w3.org/1999/xlink" x="0px" y="0px"
	 viewBox="0 0 50 50" style="enable-background:new 0 0 50 50;" xml:space="preserve">
<style type="text/css">
	.st0{fill:#F9F9F9;}
	.st1{display:none;}
	.st2{display:inline;}
</style>
<g id="Capa_3">
</g>
<g id="wsp">
	<path class="st0" d="M42.5,7.3C37.8,2.6,31.6,0,25,0C11.3,0,0.2,11.1,0.2,24.8c0,4.4,1.1,8.6,3.3,12.4L0,50l13.1-3.4
		c3.6,2,7.7,3,11.8,3h0c13.6,0,25-11.1,25-24.8C50,18.2,47.2,12,42.5,7.3z M25,45.4c-3.7,0-7.3-1-10.5-2.9l-0.7-0.4l-7.8,2L8,36.5
		l-0.5-0.8c-2.1-3.3-3.1-7.1-3.1-11C4.4,13.4,13.6,4.2,25,4.2c5.5,0,10.7,2.1,14.6,6s6.3,9.1,6.3,14.6C45.8,36.1,36.3,45.4,25,45.4z
		 M36.3,30c-0.6-0.3-3.7-1.8-4.2-2c-0.6-0.2-1-0.3-1.4,0.3c-0.4,0.6-1.6,2-2,2.4c-0.4,0.4-0.7,0.5-1.3,0.2c-3.6-1.8-6-3.2-8.4-7.4
		c-0.6-1.1,0.6-1,1.8-3.4c0.2-0.4,0.1-0.8-0.1-1.1c-0.2-0.3-1.4-3.4-1.9-4.6c-0.5-1.2-1-1-1.4-1.1c-0.4,0-0.8,0-1.2,0
		c-0.4,0-1.1,0.2-1.7,0.8c-0.6,0.6-2.2,2.1-2.2,5.2s2.2,6,2.5,6.4c0.3,0.4,4.4,6.7,10.6,9.4c3.9,1.7,5.5,1.8,7.4,1.6
		c1.2-0.2,3.7-1.5,4.2-2.9c0.5-1.5,0.5-2.7,0.4-2.9C37.3,30.4,36.9,30.3,36.3,30z"/>
</g>
<g id="ubication" class="st1">
	<g transform="translate(0.000000,1164.000000) scale(0.100000,-0.100000)" class="st2">
		<path class="st0" d="M237.5,11620.9c-29.3-2.8-55.3-14.2-76.1-33.3c-42.5-38.8-53.9-100.9-28.2-152.3c1.1-2.2,17-29.1,35.4-59.8
			c18.4-30.7,33.3-56,33.3-56.1s-28.9-0.3-64.2-0.2c-35.3,0.1-71,0-79.3-0.2l-15.1-0.3l-1.1-4.3c-0.6-2.3-2.1-8-3.4-12.6
			c-2.3-8.3-10.5-38.7-14.5-53.8c-1.2-4.3-3.1-11.2-4.2-15.5c-1.2-4.3-3-11.1-4.1-15.3c-1.1-4.1-4.2-15.5-6.9-25.3
			c-10.7-39.5-10-36.6-9.2-38.3c0.5-1.2,1-1.6,2.2-1.8c0.8-0.2,112.5-0.3,248.3-0.3c189.6,0,247,0.1,247.9,0.5c0.7,0.3,1.3,1,1.6,2
			c0.5,1.5,0,3.5-18,69c-7.3,26.6-17.1,62.5-22,80.4l-4.3,15.7h-80.7c-44.4,0-80.7,0-80.7,0.1c0,0.1,15,25.1,33.2,55.7
			c18.3,30.6,34.1,57.2,35.1,59.2c7,12.9,12.1,30.6,13.8,47.1c0.6,6.6,0.3,23.7-0.7,29.6c-4.4,28.5-15.9,51.8-35.3,71.7
			c-20.4,20.9-46.2,33.8-75.7,37.8C258.9,11621,243,11621.4,237.5,11620.9z M256.3,11540.8c6.6-1,14.3-4.1,20.3-8
			c3.4-2.3,9.5-8,12.1-11.6c5.1-6.8,8.1-14.3,9.5-23.3c2.3-15.1-3-31-14.3-42.3c-9.5-9.6-22.2-14.9-35.6-14.9
			c-19.2,0-36.6,10.8-45.2,28c-7.4,14.8-6.9,33,1.3,47.2C215,11534.4,235.2,11544.1,256.3,11540.8z"/>
	</g>
</g>
<g id="city" class="st1">
	<g class="st2">
		<path class="st0" d="M42.2,17.9c0.1,3-0.9,5.7-2.5,8.3c-1,1.8-2.5,3.3-3.9,4.8c-2.3,2.5-4.7,4.9-7.1,7.3c-0.2,0.2-0.3,0.3-0.5,0.5
			c-0.8,0.7-1.7,1.4-2.5,2c-0.6,0.5-1,0.5-1.6,0c-0.7-0.6-1.6-1.3-2.5-2c-0.7-0.6-1.4-1.2-1.9-1.7c-3-3.1-4.2-3.8-8.2-8.7
			C8.6,24.5,7.1,20.1,8,15.2C9.3,8.4,13.6,3.9,20.6,1.7c4.4-1.4,8.6-0.6,12.5,1.5c4.7,2.5,7.6,6.4,8.8,11.4c0.1,0.6,0.2,1.1,0.3,1.7
			C42.2,16.8,42.2,17.4,42.2,17.9z M25.1,31.1c8.4,0,14.6-6.8,14-14.2c-0.5-6.6-6.6-12.6-14.8-12.1c-7.6,0.4-13.6,6.5-13.1,14
			C11.8,26,18.1,31.1,25.1,31.1z"/>
		<path class="st0" d="M32.4,14.9c-0.1,0.4,0.1,0.6,0.5,0.5c0,0.3,0,0.5,0.1,0.8c0.2-0.7,0.2-0.7,0.7-0.6c0.1,0.5,0.2,0.9,0.4,1.4
			c0.1-0.2,0.2-0.3,0.3-0.5c0.1,0.4,0.2,0.7,0.3,1c0,0,0.1,0,0.1,0c0-0.3,0-0.6,0-1c0-0.5,0-1.1,0-1.6c0-0.3,0.1-0.4,0.4-0.4
			c0.1,0,0.1,0,0.2,0c1,0,1,0,1,0.9c0,0.3,0.1,0.4,0.4,0.4c0.3,0,0.3,0.2,0.3,0.4c0,1.7,0,3.3,0,5c0,0.3-0.2,0.4-0.5,0.4
			c-1.4,0-2.8,0-4.3,0c-6.3,0-12.6,0-19,0c-0.7,0-0.7,0-0.7-0.6c0-1.8,0-3.7,0-5.5c0-0.2,0.1-0.5,0.1-0.6c0.3-0.1,0.7-0.1,1,0
			c0.1,0,0.2,0.4,0.2,0.6c0,0.2,0.1,0.4,0.4,0.4c0.3,0,0.4-0.1,0.4-0.4c0-0.1,0-0.2,0.1-0.3c-0.1-0.1-0.3-0.2-0.4-0.2
			c0.1-0.1,0.2-0.2,0.3-0.2c0.2,0,0.5-0.1,0.5,0.2c0,0.3,0,0.6,0.1,0.9c0.1-0.6,0.3-1.2,0.4-1.8c0,0,0.1,0,0.1,0
			c0.2,0.9,0.4,1.8,0.6,2.8c0.1-0.2,0.2-0.3,0.3-0.5c0.1,0.4,0.2,0.6,0.3,0.9c0,0,0.1,0,0.1,0c0-0.1,0.1-0.2,0.1-0.3
			c0-0.7,0-1.5,0-2.2c0-0.3,0.1-0.5,0.4-0.4c0.4,0,0.8-0.1,1.1,0.1c0.2,0.1,0.1,0.6,0.1,0.9c0,0.2,0.1,0.4,0.4,0.4
			c0.3,0,0.4-0.1,0.4-0.4c0-0.6,0-1.2,0.1-1.8c0.1-0.5,0.2-0.9,0.4-1.4c0.1,0.2,0.1,0.4,0.2,0.6c0.3,1.1,0.4,2.1,0.3,3.2
			c0,0.6,0.1,0.6,0.7,0.6c0.5,0,1,0,1.6,0c0.5,0,0.5,0,0.5-0.5c0-0.2,0-0.4,0-0.6c0.1-0.4,0.1-0.7,0.3-1.1c0.6,1.4,0.3,2.9,0.4,4.4
			c0.5,0,1,0,1.5,0c0.1,0,0.2-0.1,0.4-0.2c-0.1-0.1-0.3-0.2-0.4-0.2c-0.3,0-0.7,0-1,0c-0.1,0-0.2-0.1-0.2-0.2c0.4,0,0.9,0,1.3,0
			c0.1,0,0.2-0.1,0.3-0.2C26,18.1,25.9,18,25.8,18c-0.3,0-0.7,0-1,0c-0.1,0-0.2-0.1-0.3-0.1c0.1,0,0.2-0.1,0.3-0.1c0.3,0,0.7,0,1,0
			c0.1,0,0.2-0.1,0.3-0.2c-0.1-0.1-0.2-0.2-0.3-0.2c-0.3,0-0.7,0-1.1,0c-0.1,0-0.2,0-0.3-0.1c0.1,0,0.2-0.1,0.2-0.1
			c0.3,0,0.6,0,0.9,0c0.2,0,0.5,0.1,0.5-0.2c0-0.3-0.3-0.2-0.5-0.2c-0.3,0-0.6,0-0.9,0c-0.1,0-0.2-0.1-0.2-0.1c0,0,0-0.1,0-0.1
			c0.4,0,0.8,0,1.2,0c0.1,0,0.3-0.1,0.4-0.2c-0.1-0.1-0.3-0.2-0.4-0.2c-0.4,0-0.8,0-1.2,0c0-0.1,0-0.1,0-0.2c0.1,0,0.3,0,0.4,0
			c0.3,0,0.7,0,1,0c0.1,0,0.2-0.1,0.3-0.2c-0.1-0.1-0.2-0.2-0.3-0.2c-0.4,0-0.9,0-1.4,0c0.2-0.6,0.4-1.3,0.6-1.9c0,0,0.1,0,0.1,0
			c0.3,0.4,0.5,0.9,0.7,1.4c0.1,0.1,0.1,0.3,0.2,0.4c0.1,0.1,0.1,0.3,0.1,0.5c0,0.6,0,1.2,0,1.8c0,0.4,0.1,0.5,0.5,0.5
			c0.5,0,0.5-0.1,0.5-0.5c0-1.2,0-2.5,0-3.7c0-0.3,0-0.5,0.4-0.5c0.4,0,0.5,0,0.5,0.5c0,1.2,0,2.4,0,3.7c0,0.5,0,0.5,0.6,0.6
			c0.4,0,0.7,0,1.1,0c0.3,0,0.5-0.1,0.5-0.4c0-0.8,0-1.6,0-2.3c0-0.4,0.1-0.5,0.5-0.5C31.4,14.9,31.8,14.9,32.4,14.9z"/>
		<polygon class="st0" points="50,49 0,49 4.6,38.7 45.4,38.7 		"/>
	</g>
</g>
</svg>
